<mxfile host="app.diagrams.net" modified="2022-01-21T16:42:11.026Z" agent="5.0 (Macintosh; Intel Mac OS X 10_15_7) AppleWebKit/605.1.15 (KHTML, like Gecko) Version/15.2 Safari/605.1.15" etag="gmzqTCRGf58WKBP4Upzt" version="16.4.3" type="github">
  <diagram id="7CbPHrSVvQyGy6UpJKRf" name="Page-1">
    <mxGraphModel dx="963" dy="810" grid="1" gridSize="10" guides="1" tooltips="1" connect="1" arrows="1" fold="1" page="1" pageScale="1" pageWidth="827" pageHeight="1169" math="0" shadow="0">
      <root>
        <mxCell id="0" />
        <mxCell id="1" parent="0" />
        <mxCell id="-Yf7tJzmuAWUm6rALFh--1" value="Vehicle ComputerÂ " style="swimlane;horizontal=0;" parent="1" vertex="1">
          <mxGeometry x="90" y="220" width="454.66999999999996" height="260" as="geometry" />
        </mxCell>
        <mxCell id="-Yf7tJzmuAWUm6rALFh--3" value="Application" style="rounded=0;whiteSpace=wrap;html=1;fontColor=#000000;" parent="-Yf7tJzmuAWUm6rALFh--1" vertex="1">
          <mxGeometry x="60" y="70" width="90" height="40" as="geometry" />
        </mxCell>
        <mxCell id="-Yf7tJzmuAWUm6rALFh--25" style="edgeStyle=orthogonalEdgeStyle;rounded=0;orthogonalLoop=1;jettySize=auto;html=1;exitX=0.25;exitY=0;exitDx=0;exitDy=0;entryX=0.5;entryY=1;entryDx=0;entryDy=0;strokeColor=#0000FF;" parent="-Yf7tJzmuAWUm6rALFh--1" source="-Yf7tJzmuAWUm6rALFh--15" target="-Yf7tJzmuAWUm6rALFh--3" edge="1">
          <mxGeometry relative="1" as="geometry" />
        </mxCell>
        <mxCell id="-Yf7tJzmuAWUm6rALFh--9" value="Cloud Adapter" style="rounded=0;whiteSpace=wrap;html=1;fontColor=#000000;" parent="-Yf7tJzmuAWUm6rALFh--1" vertex="1">
          <mxGeometry x="195" y="70" width="90" height="40" as="geometry" />
        </mxCell>
        <mxCell id="-Yf7tJzmuAWUm6rALFh--26" style="edgeStyle=orthogonalEdgeStyle;rounded=0;orthogonalLoop=1;jettySize=auto;html=1;entryX=0.5;entryY=1;entryDx=0;entryDy=0;strokeColor=#0000FF;" parent="-Yf7tJzmuAWUm6rALFh--1" target="-Yf7tJzmuAWUm6rALFh--9" edge="1">
          <mxGeometry relative="1" as="geometry">
            <mxPoint x="240" y="170" as="sourcePoint" />
          </mxGeometry>
        </mxCell>
        <mxCell id="-Yf7tJzmuAWUm6rALFh--7" value="&lt;font color=&quot;#0000ff&quot;&gt;VISS&lt;/font&gt;" style="text;html=1;align=center;verticalAlign=middle;resizable=0;points=[];autosize=1;strokeColor=none;fillColor=none;" parent="-Yf7tJzmuAWUm6rALFh--1" vertex="1">
          <mxGeometry x="60" y="120" width="40" height="20" as="geometry" />
        </mxCell>
        <mxCell id="-Yf7tJzmuAWUm6rALFh--4" value="" style="group" parent="-Yf7tJzmuAWUm6rALFh--1" vertex="1" connectable="0">
          <mxGeometry x="66" y="140" width="70" height="30" as="geometry" />
        </mxCell>
        <mxCell id="-Yf7tJzmuAWUm6rALFh--5" value="" style="image;html=1;image=img/lib/clip_art/general/Keys_128x128.png;fontColor=#000000;" parent="-Yf7tJzmuAWUm6rALFh--4" vertex="1">
          <mxGeometry width="30" height="30" as="geometry" />
        </mxCell>
        <mxCell id="-Yf7tJzmuAWUm6rALFh--6" value="&lt;font style=&quot;font-size: 11px&quot;&gt;TLS&lt;br&gt;&lt;/font&gt;&lt;div style=&quot;text-align: left ; font-size: 11px&quot;&gt;&lt;font style=&quot;font-size: 11px&quot;&gt;JWT&lt;/font&gt;&lt;/div&gt;" style="text;html=1;align=center;verticalAlign=middle;resizable=0;points=[];autosize=1;strokeColor=none;fillColor=none;fontColor=#000000;" parent="-Yf7tJzmuAWUm6rALFh--4" vertex="1">
          <mxGeometry x="30" width="40" height="30" as="geometry" />
        </mxCell>
        <mxCell id="-Yf7tJzmuAWUm6rALFh--35" value="&lt;font color=&quot;#0000ff&quot;&gt;VISS&lt;/font&gt;" style="text;html=1;align=center;verticalAlign=middle;resizable=0;points=[];autosize=1;strokeColor=none;fillColor=none;" parent="-Yf7tJzmuAWUm6rALFh--1" vertex="1">
          <mxGeometry x="200" y="120" width="40" height="20" as="geometry" />
        </mxCell>
        <mxCell id="-Yf7tJzmuAWUm6rALFh--36" value="" style="group" parent="-Yf7tJzmuAWUm6rALFh--1" vertex="1" connectable="0">
          <mxGeometry x="170" y="140" width="70" height="30" as="geometry" />
        </mxCell>
        <mxCell id="-Yf7tJzmuAWUm6rALFh--37" value="" style="image;html=1;image=img/lib/clip_art/general/Keys_128x128.png;fontColor=#000000;" parent="-Yf7tJzmuAWUm6rALFh--36" vertex="1">
          <mxGeometry width="30" height="30" as="geometry" />
        </mxCell>
        <mxCell id="-Yf7tJzmuAWUm6rALFh--38" value="&lt;font style=&quot;font-size: 11px&quot;&gt;TLS&lt;br&gt;&lt;/font&gt;&lt;div style=&quot;text-align: left ; font-size: 11px&quot;&gt;&lt;font style=&quot;font-size: 11px&quot;&gt;JWT&lt;/font&gt;&lt;/div&gt;" style="text;html=1;align=center;verticalAlign=middle;resizable=0;points=[];autosize=1;strokeColor=none;fillColor=none;fontColor=#000000;" parent="-Yf7tJzmuAWUm6rALFh--36" vertex="1">
          <mxGeometry x="30" width="40" height="30" as="geometry" />
        </mxCell>
        <mxCell id="-Yf7tJzmuAWUm6rALFh--15" value="&lt;font color=&quot;#000000&quot;&gt;KUKSA.val server&lt;br&gt;&lt;br&gt;&lt;/font&gt;" style="rounded=0;whiteSpace=wrap;html=1;fontColor=#FF0000;" parent="-Yf7tJzmuAWUm6rALFh--1" vertex="1">
          <mxGeometry x="40" y="170" width="390" height="80" as="geometry" />
        </mxCell>
        <mxCell id="-Yf7tJzmuAWUm6rALFh--16" value="&lt;font color=&quot;#ff0000&quot;&gt;&lt;b&gt;VSS model&lt;/b&gt;&lt;/font&gt;" style="text;html=1;align=center;verticalAlign=middle;resizable=0;points=[];autosize=1;strokeColor=none;fillColor=none;fontColor=#0000FF;" parent="-Yf7tJzmuAWUm6rALFh--1" vertex="1">
          <mxGeometry x="184.6732258064516" y="220" width="80" height="20" as="geometry" />
        </mxCell>
        <mxCell id="-Yf7tJzmuAWUm6rALFh--19" value="Signal Refinement" style="rounded=0;whiteSpace=wrap;html=1;fontColor=#000000;" parent="-Yf7tJzmuAWUm6rALFh--1" vertex="1">
          <mxGeometry x="314.66999999999996" y="70" width="90" height="40" as="geometry" />
        </mxCell>
        <mxCell id="-Yf7tJzmuAWUm6rALFh--45" style="edgeStyle=orthogonalEdgeStyle;rounded=0;orthogonalLoop=1;jettySize=auto;html=1;exitX=0.25;exitY=0;exitDx=0;exitDy=0;entryX=0.25;entryY=1;entryDx=0;entryDy=0;strokeColor=#0000FF;" parent="-Yf7tJzmuAWUm6rALFh--1" source="-Yf7tJzmuAWUm6rALFh--44" target="-Yf7tJzmuAWUm6rALFh--19" edge="1">
          <mxGeometry relative="1" as="geometry" />
        </mxCell>
        <mxCell id="-Yf7tJzmuAWUm6rALFh--44" value="" style="rounded=0;whiteSpace=wrap;html=1;strokeColor=none;fillColor=none;" parent="-Yf7tJzmuAWUm6rALFh--1" vertex="1">
          <mxGeometry x="264.66999999999996" y="170" width="190" height="30" as="geometry" />
        </mxCell>
        <mxCell id="-Yf7tJzmuAWUm6rALFh--46" style="edgeStyle=orthogonalEdgeStyle;rounded=0;orthogonalLoop=1;jettySize=auto;html=1;exitX=0.75;exitY=1;exitDx=0;exitDy=0;entryX=0.75;entryY=0;entryDx=0;entryDy=0;strokeColor=#0000FF;" parent="-Yf7tJzmuAWUm6rALFh--1" source="-Yf7tJzmuAWUm6rALFh--19" target="-Yf7tJzmuAWUm6rALFh--44" edge="1">
          <mxGeometry relative="1" as="geometry" />
        </mxCell>
        <mxCell id="-Yf7tJzmuAWUm6rALFh--49" value="&lt;font color=&quot;#0000ff&quot;&gt;VISS&lt;/font&gt;" style="text;html=1;align=center;verticalAlign=middle;resizable=0;points=[];autosize=1;strokeColor=none;fillColor=none;" parent="-Yf7tJzmuAWUm6rALFh--1" vertex="1">
          <mxGeometry x="339.66999999999996" y="120" width="40" height="20" as="geometry" />
        </mxCell>
        <mxCell id="-Yf7tJzmuAWUm6rALFh--50" value="" style="group" parent="-Yf7tJzmuAWUm6rALFh--1" vertex="1" connectable="0">
          <mxGeometry x="314.66999999999996" y="140" width="70" height="30" as="geometry" />
        </mxCell>
        <mxCell id="-Yf7tJzmuAWUm6rALFh--51" value="" style="image;html=1;image=img/lib/clip_art/general/Keys_128x128.png;fontColor=#000000;" parent="-Yf7tJzmuAWUm6rALFh--50" vertex="1">
          <mxGeometry width="30" height="30" as="geometry" />
        </mxCell>
        <mxCell id="-Yf7tJzmuAWUm6rALFh--52" value="&lt;font style=&quot;font-size: 11px&quot;&gt;TLS&lt;br&gt;&lt;/font&gt;&lt;div style=&quot;text-align: left ; font-size: 11px&quot;&gt;&lt;font style=&quot;font-size: 11px&quot;&gt;JWT&lt;/font&gt;&lt;/div&gt;" style="text;html=1;align=center;verticalAlign=middle;resizable=0;points=[];autosize=1;strokeColor=none;fillColor=none;fontColor=#000000;" parent="-Yf7tJzmuAWUm6rALFh--50" vertex="1">
          <mxGeometry x="30" width="40" height="30" as="geometry" />
        </mxCell>
        <mxCell id="-Yf7tJzmuAWUm6rALFh--27" style="edgeStyle=orthogonalEdgeStyle;rounded=0;orthogonalLoop=1;jettySize=auto;html=1;exitX=0.5;exitY=0;exitDx=0;exitDy=0;entryX=0.5;entryY=1;entryDx=0;entryDy=0;entryPerimeter=0;strokeColor=#0000FF;dashed=1;" parent="1" source="-Yf7tJzmuAWUm6rALFh--9" target="-Yf7tJzmuAWUm6rALFh--29" edge="1">
          <mxGeometry relative="1" as="geometry">
            <mxPoint x="320" y="150" as="targetPoint" />
          </mxGeometry>
        </mxCell>
        <mxCell id="-Yf7tJzmuAWUm6rALFh--29" value="" style="whiteSpace=wrap;html=1;shape=mxgraph.basic.isocube;isoAngle=15;" parent="1" vertex="1">
          <mxGeometry x="280" y="50" width="100" height="100" as="geometry" />
        </mxCell>
        <mxCell id="-Yf7tJzmuAWUm6rALFh--30" value="Cloud" style="text;html=1;align=center;verticalAlign=middle;resizable=0;points=[];autosize=1;strokeColor=none;fillColor=none;rotation=25;" parent="1" vertex="1">
          <mxGeometry x="280" y="102" width="50" height="20" as="geometry" />
        </mxCell>
        <mxCell id="-Yf7tJzmuAWUm6rALFh--31" value="Edge" style="text;html=1;align=center;verticalAlign=middle;resizable=0;points=[];autosize=1;strokeColor=none;fillColor=none;rotation=-25;" parent="1" vertex="1">
          <mxGeometry x="330" y="105" width="40" height="20" as="geometry" />
        </mxCell>
      </root>
    </mxGraphModel>
  </diagram>
</mxfile>
